Patient4_TMGait_0pt3_01_right_13_EMG.mot
version=1
nRows=36
nColumns=33
inDegrees=no
endheader
time	1LAddLong	2LGlutMax	3LGlutMed	4LIliopsoas	5LSemiMemb	6LBicFemLong	7LRecFem	8LVastMed	9LVastLat	10LGasMed	11LTibAnt	12lTibPost	13LPeroneusLong	14LSol	15LExtDigLong	16LFlexDigLong	17RAddLong	18RGlutMax	19RGlutMed	20RIliopsoas	21RSemiMemb	22RBicFemLong	23RRecFem	24RVastMed	25RVastLat	26RGasMed	27RTibAnt	28RTibPost	29RPeroneusLong	30RSol	31RExtDigLong	32RFlexDigLong
24.5	-0.005035	0.081177	-0.008087	0.014038	0.083618	0.02594	0.20538	0.001068	-0.093231	-0.013885	-0.053864	0.009003	0.001221	0.1416	0.41901	-0.01236	0.009613	-0.067139	0.14511	0.072174	0.002594	0.037537	-0.074463	-0.027313	0.026245	-0.004883	-0.15778	-0.004425	-0.006409	0.14862	0.002136	-0.018005
24.501	-0.009918	0.079498	0.052032	0.020294	0.069275	0.017242	0.18097	-0.003662	-0.20752	-0.014191	-0.057831	-0.009613	-0.006561	0.15869	0.17425	-0.016174	-0.000153	-0.072937	-0.028839	0.094299	-0.039673	0.057068	-0.12482	-0.005341	0.032349	-0.00351	-0.036774	-0.008087	0.21133	0.089874	0	-0.016785
24.502	-0.003967	0.058594	0.11383	0.002136	0.057068	-0.006714	0.1709	0.005951	-0.16342	-0.043793	0.11215	0.002289	0.042419	0.16251	0.094757	-0.026245	0.003967	-0.091705	0.038605	0.066681	-0.036926	0.046997	-0.14343	-0.030212	0.04303	0.003967	-0.088043	-0.004272	0.033569	0.099792	0.003357	-0.01709
24.503	0.013885	0.025635	0.098114	0.007935	0.020905	0.011749	0.12573	-0.005341	-0.019531	-0.046997	0.20737	-0.001984	0.037079	0.21301	-0.84824	-0.010681	0.010834	-0.051727	0.10269	0.015106	0.032654	0.055695	-0.14374	-0.00946	0.046692	-0.003052	0.087891	-0.00351	-0.28305	0.065308	0.001526	-0.008392
24.504	0.017853	0.012512	0.049133	0.009766	-0.015564	0.045929	0.019836	-0.008545	0.11505	-0.040741	0.050507	0.004578	0.001221	0.11337	-0.57587	-0.003052	0.005035	-0.11353	0.16388	-0.036316	0.021515	-0.001526	-0.16739	-0.019226	0.055695	-0.009155	0.11963	-0.00885	0.084534	-0.006104	0.001984	-0.017242
24.505	0.0177	0.028687	0.023804	-0.003204	-0.072327	0.059662	-0.059662	-0.005493	0.20599	-0.020447	-0.009766	-0.016022	0.001526	-0.076294	-0.46967	-0.005798	0.009308	-0.11688	-0.049591	0.003967	0.011902	0.009308	-0.14969	-0.072479	0.062103	-0.007172	-0.12207	-0.002289	-0.003204	-0.047302	0.012665	-0.020447
24.506	0.012512	0.034943	0.01358	0.01236	-0.12924	0.036621	-0.1181	0.002899	0.21088	0.013275	0.03006	-0.002289	-0.002136	-0.15182	-0.58273	-0.004883	0.007172	-0.086365	-0.072327	-0.05127	0.04364	0.029297	-0.10651	-0.12787	0.042572	-0.006866	-0.096436	-0.00824	-0.018768	0.043335	0.001221	-0.019379
24.507	0.028839	0.012665	0.021057	0.011749	-0.11337	0.005798	-0.18417	0.001984	0.20218	0.026245	-0.043182	-0.007019	0.025635	-0.11185	-0.43106	0.007019	0.010071	-0.094299	0.18372	-0.041351	0.047455	0.048981	-0.088959	-0.11673	0.001984	-0.012665	0.000458	-0.009155	0.14023	0.13031	0.001831	-0.024109
24.508	0.024261	0.051422	0.050964	0.008392	-0.041809	-0.020905	-0.18951	0.015717	0.26016	0.024261	-0.057068	-0.006256	0.017242	-0.08255	-0.23575	0.005951	-0.005188	-0.031738	0.38834	-0.034027	0.031738	0.094452	-0.19333	-0.046539	0.001373	-0.019226	0.035095	-0.001068	0.018463	0.084991	0.000916	-0.017395
24.509	0.027313	0.037231	0.02121	0.02243	0.04303	-0.077209	-0.17425	0.019989	0.27298	0.022125	-0.079803	-0.002594	0.018311	-0.10773	-0.034027	0.011292	-0.014954	-0.19348	0.34988	-0.053101	-0.10529	0.11902	-0.24002	0.049438	-0.043793	-0.018921	0.072327	-0.002289	-0.11322	-0.078583	0.001526	-0.018463
24.51	0.033875	0.020294	-0.01358	0.014496	0.086365	-0.06546	-0.11231	0.018311	0.03891	0.014496	-0.05249	0.003815	-0.000458	-0.15823	0.084686	0.009308	-0.017395	-0.15945	0.20767	-0.032196	-0.084686	0.077515	-0.28107	0.025177	-0.062714	-0.015411	0.07782	-0.00351	-0.11902	0.08255	-0.001373	-0.015411
24.511	0.044556	-0.00351	-0.037994	0.010986	0.13473	-0.018463	0.003815	-0.004883	-0.17822	0.004578	-0.023804	0.010681	-0.019226	-0.046387	0.086212	0.001526	0.009918	-0.10483	0.085907	-0.045319	0.011292	0.014801	-0.25772	-0.007629	-0.035095	-0.00473	0.076294	-0.007477	0.042419	0.22812	0.001068	-0.014801
24.512	0.049591	-0.013275	-0.026093	0.011292	0.13428	-0.002747	0.009155	-0.00351	-0.35187	0.000458	-0.033569	0.006104	-0.009155	-0.073547	0.12116	0.00885	0.018005	-0.13473	0.10071	-0.10132	0.042114	-0.011902	-0.1387	-0.008392	-0.007324	0.001678	-0.017242	0.002747	-0.054932	0.13855	-0.001221	-0.01358
24.513	0.026703	-0.052795	0.016632	0.020142	0.059357	0.078888	0.037689	0.007324	-0.42343	-0.01236	0.02594	0.001984	0.001984	-0.078888	0.11505	0.014496	0.024414	-0.11581	-0.10346	-0.028992	0.047913	-0.037231	-0.08667	-0.007172	-0.025787	0.010986	-0.005341	0.012512	0.14923	-0.001678	0.001678	-0.007324
24.514	0.004578	-0.001678	0.043488	0.022125	0.007172	0.13016	0.022736	0.019226	-0.35492	0.016022	0.050507	0.009308	-0.017242	-0.084229	0.12054	0.016174	0.037231	-0.11139	-0.121	0.030365	0.050812	-0.036163	-0.096893	-0.020599	-0.018921	0.00351	0.074158	0.001221	-0.10819	-0.054321	0.00351	-0.010376
24.515	-0.011597	-0.007477	0.039978	0.009918	-0.026703	0.14786	0.014038	0.022278	-0.22507	0.022583	0.037842	-0.00946	-0.001678	-0.067444	0.11643	0.006714	0.006104	-0.094757	-0.13962	-0.002899	-0.025787	0.001526	-0.1561	-0.013275	-0.020599	0.005493	0.097656	-0.003357	-0.55222	-0.014038	0.001526	-0.015564
24.516	-0.015564	-0.016327	0.050201	0.001373	-0.039825	0.12604	0.000458	0.014038	-0.10605	0.018921	0.018616	-0.00061	0.01297	-0.00412	0.12344	0.018921	-0.002136	-0.10239	-0.058746	0.010986	-0.13611	0.049591	-0.10025	0.045013	-0.024261	0.012665	0.095825	-0.001373	-0.66727	-0.033875	-0.00061	-0.027466
24.517	-0.018158	-0.002289	0.017548	0.003357	0.009003	0.065002	0.00885	0.00946	-0.049133	0.002747	0.018921	-0.004425	0.018311	-0.00061	0.1358	0.024109	-0.014038	-0.11246	0.058746	0.010986	-0.19348	0.019531	-0.14984	0.063477	0.005188	0.017853	0.073242	-0.000916	0.28091	-0.093231	0.000305	-0.014954
24.518	-0.005035	-0.016632	0.003204	-0.019226	0.039978	0.03067	0.021362	0.007172	0.045471	0.007782	0.01297	0.016174	0.011749	-0.057526	0.1767	0.011902	-0.005188	-0.1152	0.12863	0.022278	0.11536	-0.078888	-0.14236	-0.014343	-0.039368	0.020294	0.034027	-0.003204	0.51453	-0.19699	-0.002136	-0.017395
24.519	-0.001068	-0.039063	-0.03418	0.016632	-0.043335	0.079498	0.012817	0.021515	0.068512	0.008698	0.012207	0.011139	0.009003	-0.062866	0.20462	0.031433	0.007935	-0.087891	0.53848	0.013885	0.14252	-0.1181	-0.20706	-0.061951	-0.098724	0.016174	0.0354	-0.005798	0.26077	-0.242	0.00412	-0.015869
24.52	-0.016632	-0.053406	-0.035248	-0.005493	-0.10529	0.13275	0.044098	0.003967	-0.021515	0.003967	0.001221	-0.002289	0.006256	0.003357	0.15503	0.022125	0.005035	-0.06485	-0.099182	0.068512	0.071869	-0.07019	-0.27359	-0.066071	-0.10773	0.011444	0.070343	-0.009155	0.177	-0.14557	0.00351	-0.018921
24.521	-0.048828	-0.02243	-0.052948	0.020294	-0.069885	0.14389	0.050812	0.015411	-0.086975	0.002747	0.037689	0.009613	0.005493	0.013123	0.11215	0.012817	0.013275	-0.018768	-0.13382	0.037537	0.004578	-0.031433	-0.20111	-0.08728	-0.094452	-0.028076	0.10788	0.006256	0.14999	-0.14542	0.003204	-0.016479
24.522	-0.08194	-0.036774	-0.044403	0.019836	0.016937	0.089722	-0.02121	0.006409	-0.10284	0.008698	0.077362	-0.009003	-0.032959	0.001984	0.055847	0.013428	0.005188	-0.084839	0.071869	0.000305	0.01358	-0.007629	-0.19043	-0.051117	0.009308	-0.018463	0.11337	0.007172	0.088806	-0.33722	0.001678	-0.014496
24.523	-0.055695	-0.038605	-0.011902	0.005798	0.061493	0.095367	-0.030212	0.013123	-0.097961	0.01297	0.059509	0.005035	-0.029144	0.015717	0.05188	0.006561	0.008698	-0.084381	0.11719	-0.010529	0.032501	0.013275	-0.17563	-0.008392	-0.010681	-0.028534	0.10971	-0.003052	0.030365	-0.52948	0.002136	-0.013275
24.524	-0.007019	0.044403	0.011597	-0.008545	0.019379	0.13702	-0.039368	0.011902	-0.083008	0.008545	0.007019	0.005493	0.017548	0.055389	0.069275	0.007324	-0.015717	-0.042725	0.15518	-0.034637	0.066528	-0.002289	-0.31723	-0.000916	0.071564	-0.032043	0.077667	-0.094452	-0.19196	-0.2655	-0.002289	-0.011139
24.525	-0.028381	0.048828	0.042267	-0.019836	-0.029144	0.16342	-0.023041	0.014648	-0.086975	0.018768	0.052948	0.00351	-0.007935	0.055237	0.24719	0.003357	0.012665	-0.062866	0.057831	-0.026703	0.057983	-0.053864	-0.22888	-0.011902	0.13336	-0.04364	0.031586	0.00473	-0.32135	0.29388	-0.002747	-0.005798
24.526	-0.025177	0.020905	0.048676	-0.01297	-0.053406	0.14938	0.015564	0.010376	-0.005798	0.002136	0.15747	-0.007629	-0.029755	0.055542	0.26672	0.002136	0.013123	-0.063934	-0.006409	0.022583	0.008087	-0.066681	-0.16342	-0.059509	0.11154	-0.023651	0.038452	0.033112	-0.68329	0.27054	-0.000458	-0.011444
24.527	-0.015564	0.003967	0.027008	0.002289	-0.089417	0.036316	0.085297	-0.010071	0.12238	-0.035858	0.10529	0.010376	0.09079	0.15564	0.011292	0.014496	-0.00412	0.009766	-0.18738	0.02655	-0.094452	-0.027618	-0.16235	-0.054474	0.066071	-0.044403	0.068054	-0.008545	-0.54047	0.112	-0.002441	-0.014343
24.528	0.014496	-0.004578	-0.005341	0.014191	-0.098267	-0.11566	0.021362	-0.02243	0.19989	-0.036469	0.041809	0.005188	0.1326	0.18127	0.091553	0.022736	-0.003967	-0.003204	-0.19348	0.014191	-0.047913	-0.047455	-0.11963	0.032806	-0.015564	-0.039063	0.0737	-0.006409	0.17563	0.046387	0.003204	-0.0177
24.529	0.032043	0.032043	-0.005188	0.017395	-0.11963	-0.16876	-0.001526	-0.02182	0.20523	-0.012512	-0.27679	0.007172	0.13062	0.16983	-0.20432	0.020294	-0.015259	0.033569	0.06485	-0.034637	0.00885	-0.037994	0.024414	0.014801	-0.034943	-0.015869	0.053558	-0.004272	0.44388	0.06897	0.000458	-0.013733
24.53	0.042877	0.076294	-0.009766	0.012817	-0.008545	-0.17151	-0.04364	-0.013123	0.27313	0.019836	-0.26825	0.007019	0.033569	0.15182	-0.015259	0.000763	0.007324	0.054474	0.062714	-0.011444	0.037384	-0.052795	0.11734	-0.032043	-0.046844	0.01236	0.046539	-0.004425	0.52185	0.13809	0.000305	-0.011902
24.531	0.041809	-0.003662	0.009766	0.015869	0.14221	-0.14313	-0.07309	-0.032043	0.23315	0.018616	-0.05722	-0.003204	-0.045471	0.13779	-0.096283	-0.00412	0.012665	-0.016022	0.13825	-0.051117	0.025635	-0.053711	0.1506	-0.023956	-0.082855	0.007629	0.03418	0.024109	0.36941	0.22614	0.003662	-0.015564
24.532	0.042725	0.006714	-0.014343	0.011139	0.16083	-0.07431	-0.088348	-0.027924	0.12116	0.04425	0.060272	0.007629	-0.079651	0.10803	-0.24994	0.001068	0.011597	-0.014954	0.039978	-0.011444	0.016022	-0.063171	0.094757	-0.09613	-0.09201	0.005646	0.054474	-0.003204	0.26291	-0.025635	-0.002136	-0.02121
24.533	0.036469	0.02243	-0.032043	-0.018005	0.14297	-0.090332	-0.12512	-0.016479	0.049591	0.007019	-0.12253	0.003662	0.023041	0.041046	-0.31708	0.000153	0.001984	0.11505	0.18677	0.009155	0.037079	-0.030518	-0.3804	-0.18646	-0.12238	0.000916	0.064545	-0.19348	0.12253	-0.40497	0.000458	-0.028992
24.534	0.022583	0.011749	0.004425	-0.004883	0.08255	-0.063782	-0.10819	-0.007172	-0.020599	-0.03418	-0.077667	0.006866	0.078278	0.033417	-0.17716	0.001984	0.00351	0.097504	-0.15854	0.005341	0.0177	0.004425	-0.78995	-0.17075	0.076599	0.006714	0.066376	-0.027008	0.021362	-0.52704	0	-0.029907
24.535	0.009766	-0.039063	-0.036926	-0.000458	0.016327	-0.010834	-0.096893	-0.003204	-0.044556	-0.023956	0.075073	0.002441	0.05722	-0.04776	-0.13306	0.000458	0.00946	0.061646	-0.26886	0.096588	-0.030518	-0.040741	-0.55771	-0.079193	0.21316	0.00473	0.06424	0.27542	0.15411	-0.071869	-0.000458	-0.023804
